<?xml version="1.0" encoding="utf-8"?>
<!-- Svg Vector Icons : http://www.onlinewebfonts.com/icon -->
<!DOCTYPE svg PUBLIC "-//W3C//DTD SVG 1.1//EN" "http://www.w3.org/Graphics/SVG/1.1/DTD/svg11.dtd">
<svg version="1.1" xmlns="http://www.w3.org/2000/svg" xmlns:xlink="http://www.w3.org/1999/xlink" x="0px" y="0px" viewBox="0 0 1000 1000" enable-background="new 0 0 1000 1000" xml:space="preserve">
<metadata> Svg Vector Icons : http://www.onlinewebfonts.com/icon </metadata>
<g><g transform="translate(0.000000,511.000000) scale(0.100000,-0.100000)"><path d="M4619.8,5021.6c-918.3-77.5-1819.1-389.4-2595.9-904.7C1342,3665.5,770.5,2999.1,394.7,2214.5c-166.6-348.7-209.2-472.7-184-536.6c21.3-58.1,342.9-341,428.1-377.8l54.2-23.2l-32.9-106.5c-17.4-60.1-38.7-112.4-46.5-120.1c-5.8-7.7-98.8-19.4-207.3-27.1c-106.5-5.8-197.6-15.5-201.5-21.3c-3.9-3.9-21.3-75.6-38.7-156.9C15,114.5,127.3-962.6,458.6-1989.3l69.7-213.1l42.6,193.7c56.2,249.9,145.3,472.7,259.6,650.9l89.1,139.5l-52.3,263.5c-91,453.3-118.2,742-106.5,1154.6c11.6,385.5,25.2,480.4,131.7,856.3c56.2,201.5,65.9,217,114.3,228.6c79.4,17.4,110.4,62,203.4,286.7c218.9,538.6,594.7,1075.2,1001.6,1427.8c459.1,399.1,1127.5,740,1768.7,900.8c1150.7,290.6,2388.6,69.7,3409.6-606.4c430.1-284.8,732.3-587,1019-1019c149.2-224.7,344.9-598.6,414.6-796.2c42.6-118.2,94.9-178.2,164.7-193.7c50.4-11.6,58.1-27.1,114.3-228.6c122-441.7,127.9-492.1,127.9-972.5c0-461.1-29.1-726.5-124-1144.9c-31-135.6-31-160.8-7.7-193.7c137.5-184,261.5-468.8,325.5-751.7l42.6-195.7l79.4,251.8c279,881.5,406.8,1834.6,333.2,2479.7c-21.3,172.4-73.6,457.2-89.1,472.7c-3.9,5.8-94.9,15.5-201.5,21.3c-108.5,7.7-201.5,19.4-207.3,27.1c-7.7,7.7-29.1,60.1-46.5,120.1l-32.9,106.5l54.2,23.2c85.2,36.8,406.8,319.6,428.1,377.8c25.2,63.9-17.4,184-178.2,526.9c-364.2,763.3-951.2,1458.7-1606,1894.6c-683.8,455.3-1456.8,757.5-2239.5,875.6C5499.4,5013.9,4856.2,5041,4619.8,5021.6z"/><path d="M2421.1-679.7c-91.1-17.4-182.1-42.6-205.4-56.2c-63.9-34.9-104.6-112.4-104.6-197.6c0-178.2,300.3-1451,530.8-2249.1c149.2-521.1,412.6-1327,451.4-1385.1c15.5-23.3,60-58.1,98.8-77.5c81.4-38.7,131.7-29.1,393.3,71.7c178.2,67.8,230.5,122.1,230.5,236.4c0,44.6-62,267.3-147.2,525c-269.3,817.5-540.5,1832.6-716.8,2665.7c-77.5,377.8-98.8,432-182.1,474.6C2700-635.2,2630.3-637.1,2421.1-679.7z"/><path d="M7213.8-679.7c-79.4-48.4-102.7-118.2-191.8-544.4c-162.7-794.3-420.4-1747.4-705.2-2619.2c-149.2-453.3-155-482.4-131.7-550.2c31-94.9,83.3-129.8,313.8-213.1c352.6-125.9,372-108.5,585,556c317.7,984.1,525,1751.3,720.7,2665.7c87.2,406.8,93,484.3,50.4,567.6c-38.8,75.5-102.7,104.6-310,143.3C7324.3-635.2,7287.5-635.2,7213.8-679.7z"/><path d="M1677.1-894.8c-75.6-23.3-122.1-69.7-147.2-147.2c-19.4-56.2-9.7-125.9,58.1-459.1c174.4-842.7,461.1-1908.2,745.8-2754.8c145.3-435.9,158.9-466.9,220.8-507.6c36.8-25.2,89.1-44.6,118.2-44.6c77.5,0,187.9,52.3,222.8,102.7c27.1,42.6,17.4,77.5-135.6,538.6c-323.5,978.3-701.3,2423.5-833,3181C1909.6-883.1,1822.4-852.1,1677.1-894.8z"/><path d="M8122.4-894.8c-29.1-11.6-46.5-40.7-54.2-91.1c-32.9-184-193.7-914.4-280.9-1261.1C7612.9-2954.1,7394-3701.9,7177-4341.2c-102.7-302.2-106.5-319.6-75.6-364.2c34.9-54.2,135.6-102.7,217-102.7c31,0,85.2,19.4,122,44.6c62,40.7,75.6,71.7,232.5,542.4c308,926,621.9,2115.5,792.4,3008.6c27.1,135.6-1.9,234.4-81.4,286.7C8325.8-887,8178.6-869.6,8122.4-894.8z"/><path d="M1216.1-1338.4c-137.5-147.2-275.1-416.5-339-656.7c-65.9-248-83.3-701.3-36.8-962.8c131.7-761.3,554.1-1412.3,1094.6-1683.5c118.2-60,310-127.9,358.4-127.9c11.6,0-48.4,211.2-133.7,470.8c-282.8,850.5-571.5,1914-738.1,2721.9c-40.7,193.7-79.4,352.6-87.2,352.6C1326.5-1224.1,1274.2-1274.5,1216.1-1338.4z"/><path d="M8571.9-1576.7c-180.2-856.3-453.3-1869.5-732.3-2712.2c-87.2-265.4-155-480.4-149.2-480.4c52.3,0,257.6,69.7,366.1,124c546.3,277,968.6,924.1,1098.4,1693.2c46.5,269.3,29.1,701.3-36.8,957c-63.9,240.2-201.5,509.5-339,656.7c-58.1,63.9-110.4,114.3-118.2,114.3C8653.2-1224.1,8614.5-1383,8571.9-1576.7z"/></g></g>
</svg>